<svg xmlns="http://www.w3.org/2000/svg" viewBox="0 0 96 96" role="img" aria-label="סמל בית הוראה">
  <defs>
    <linearGradient id="gold" x1="12" x2="84" y1="10" y2="88">
      <stop offset="0" stop-color="#fff0a6"/>
      <stop offset=".38" stop-color="#ddca62"/>
      <stop offset=".72" stop-color="#ad812b"/>
      <stop offset="1" stop-color="#f2df8a"/>
    </linearGradient>
    <linearGradient id="green" x1="0" x2="1" y1="0" y2="1">
      <stop offset="0" stop-color="#183d32"/>
      <stop offset="1" stop-color="#082a25"/>
    </linearGradient>
    <filter id="shadow" x="-20%" y="-20%" width="140%" height="140%">
      <feDropShadow dx="0" dy="8" stdDeviation="6" flood-color="#000" flood-opacity=".28"/>
    </filter>
  </defs>
  <rect x="5" y="5" width="86" height="86" rx="18" fill="url(#green)"/>
  <rect x="9" y="9" width="78" height="78" rx="15" fill="none" stroke="url(#gold)" stroke-width="1.5" opacity=".75"/>
  <g filter="url(#shadow)" fill="none" stroke="url(#gold)" stroke-linecap="round" stroke-linejoin="round">
    <path d="M48 21v45" stroke-width="4.5"/>
    <path d="M31 30h34" stroke-width="4.5"/>
    <path d="M48 28 27 39" stroke-width="3.2"/>
    <path d="M48 28 69 39" stroke-width="3.2"/>
    <path d="M22 58h20" stroke-width="3.2"/>
    <path d="M54 58h20" stroke-width="3.2"/>
    <path d="M27 39 20 58h24L37 39" stroke-width="3.2"/>
    <path d="M69 39 62 58h24L79 39" stroke-width="3.2" transform="translate(-12 0)"/>
    <path d="M36 72h24" stroke-width="4.5"/>
    <path d="M42 66h12" stroke-width="4.5"/>
  </g>
  <g transform="translate(50 53) rotate(-39)" filter="url(#shadow)">
    <rect x="0" y="0" width="9" height="31" rx="3" fill="url(#gold)"/>
    <rect x="-10" y="-8" width="29" height="12" rx="3" fill="url(#gold)"/>
    <path d="M-8-8h25" stroke="#fff2ad" stroke-width="1.5" opacity=".75"/>
  </g>
</svg>
