<svg xmlns="http://www.w3.org/2000/svg" viewBox="0 0 420 220" role="img" aria-label="פעילות לילדים ונוער">
  <defs>
    <linearGradient id="g" x1="0" x2="1" y1="0" y2="1"><stop offset="0" stop-color="#0d6b34"/><stop offset=".55" stop-color="#06441f"/><stop offset="1" stop-color="#021f10"/></linearGradient>
    <radialGradient id="r" cx="72%" cy="18%" r="62%"><stop offset="0" stop-color="#ddca62" stop-opacity=".42"/><stop offset=".38" stop-color="#ddca62" stop-opacity=".12"/><stop offset="1" stop-color="#000" stop-opacity="0"/></radialGradient>
    <filter id="soft" x="-30%" y="-30%" width="160%" height="160%"><feGaussianBlur stdDeviation="3"/></filter>
  </defs>
  <rect width="420" height="220" fill="url(#g)"/>
  <rect width="420" height="220" fill="url(#r)"/>
  <path d="M0 174 C88 135 150 206 232 168 C309 132 351 140 420 102 L420 220 L0 220Z" fill="#ffffff" opacity=".045"/>
  <path d="M20 26 H400" stroke="#f7e7aa" stroke-opacity=".18" stroke-width="1"/>
  <g fill="none" stroke="#fff4ca" stroke-width="5" stroke-linecap="round" stroke-linejoin="round" opacity=".9"><path d="M116 152c18-42 76-42 94 0M210 152c18-42 76-42 94 0"/><circle cx="163" cy="92" r="22"/><circle cx="257" cy="92" r="22"/><path d="M88 174h244"/></g><g fill="#ddca62" opacity=".74"><path d="M326 54l6 13 14 2-10 10 3 14-13-7-12 7 2-14-10-10 14-2zM94 56l5 11 12 2-9 8 2 12-10-6-11 6 2-12-9-8 12-2z"/></g>
</svg>