<svg xmlns="http://www.w3.org/2000/svg" viewBox="0 0 420 220" role="img" aria-label="גמח שקופים למשפחות">
  <defs>
    <linearGradient id="g" x1="0" x2="1" y1="0" y2="1"><stop offset="0" stop-color="#0d6b34"/><stop offset=".55" stop-color="#06441f"/><stop offset="1" stop-color="#021f10"/></linearGradient>
    <radialGradient id="r" cx="72%" cy="18%" r="62%"><stop offset="0" stop-color="#ddca62" stop-opacity=".42"/><stop offset=".38" stop-color="#ddca62" stop-opacity=".12"/><stop offset="1" stop-color="#000" stop-opacity="0"/></radialGradient>
    <filter id="soft" x="-30%" y="-30%" width="160%" height="160%"><feGaussianBlur stdDeviation="3"/></filter>
  </defs>
  <rect width="420" height="220" fill="url(#g)"/>
  <rect width="420" height="220" fill="url(#r)"/>
  <path d="M0 174 C88 135 150 206 232 168 C309 132 351 140 420 102 L420 220 L0 220Z" fill="#ffffff" opacity=".045"/>
  <path d="M20 26 H400" stroke="#f7e7aa" stroke-opacity=".18" stroke-width="1"/>
  <g fill="none" stroke="#fff4ca" stroke-width="5" stroke-linecap="round" stroke-linejoin="round" opacity=".9"><path d="M112 126c32 42 64 54 98 54s66-12 98-54"/><path d="M118 126c26-20 54-20 84 0M218 126c30-20 58-20 84 0"/><path d="M210 70c34-44 98-8 54 44l-54 50-54-50c-44-52 20-88 54-44Z"/></g><circle cx="210" cy="118" r="86" fill="#ddca62" opacity=".08"/>
</svg>