<svg xmlns="http://www.w3.org/2000/svg" viewBox="0 0 420 220" role="img" aria-label="בוררות וגישור">
  <defs>
    <linearGradient id="g" x1="0" x2="1" y1="0" y2="1"><stop offset="0" stop-color="#0d6b34"/><stop offset=".55" stop-color="#06441f"/><stop offset="1" stop-color="#021f10"/></linearGradient>
    <radialGradient id="r" cx="72%" cy="18%" r="62%"><stop offset="0" stop-color="#ddca62" stop-opacity=".42"/><stop offset=".38" stop-color="#ddca62" stop-opacity=".12"/><stop offset="1" stop-color="#000" stop-opacity="0"/></radialGradient>
    <filter id="soft" x="-30%" y="-30%" width="160%" height="160%"><feGaussianBlur stdDeviation="3"/></filter>
  </defs>
  <rect width="420" height="220" fill="url(#g)"/>
  <rect width="420" height="220" fill="url(#r)"/>
  <path d="M0 174 C88 135 150 206 232 168 C309 132 351 140 420 102 L420 220 L0 220Z" fill="#ffffff" opacity=".045"/>
  <path d="M20 26 H400" stroke="#f7e7aa" stroke-opacity=".18" stroke-width="1"/>
  <g fill="none" stroke="#fff4ca" stroke-width="5" stroke-linecap="round" stroke-linejoin="round" opacity=".9"><path d="M112 112l42 42c14 14 34 14 48 0l16-16"/><path d="M308 112l-42 42c-14 14-34 14-48 0l-16-16"/><path d="M154 112l34-34c12-12 32-12 44 0l34 34"/><path d="M88 100l38-38 42 42-38 38zM332 100l-38-38-42 42 38 38z"/></g><circle cx="210" cy="112" r="54" fill="#ddca62" opacity=".12"/>
</svg>